<?xml version="1.0" encoding="UTF-8" standalone="no"?>
<svg
   xmlns:dc="http://purl.org/dc/elements/1.1/"
   xmlns:cc="http://creativecommons.org/ns#"
   xmlns:rdf="http://www.w3.org/1999/02/22-rdf-syntax-ns#"
   xmlns:svg="http://www.w3.org/2000/svg"
   xmlns="http://www.w3.org/2000/svg"
   xmlns:sodipodi="http://sodipodi.sourceforge.net/DTD/sodipodi-0.dtd"
   xmlns:inkscape="http://www.inkscape.org/namespaces/inkscape"
   inkscape:version="1.0 (4035a4fb49, 2020-05-01)"
   height="32"
   width="32"
   sodipodi:docname="Icono Prieto azul-dorado.svg"
   xml:space="preserve"
   viewBox="0 0 32 32"
   y="0px"
   x="0px"
   id="Layer_1"
   version="1.1"><metadata
   id="metadata23"><rdf:RDF><cc:Work
       rdf:about=""><dc:format>image/svg+xml</dc:format><dc:type
         rdf:resource="http://purl.org/dc/dcmitype/StillImage" /><dc:title></dc:title></cc:Work></rdf:RDF></metadata><defs
   id="defs21" /><sodipodi:namedview
   inkscape:current-layer="Layer_1"
   inkscape:window-maximized="1"
   inkscape:window-y="-8"
   inkscape:window-x="-8"
   inkscape:cy="11.821047"
   inkscape:cx="39.675323"
   inkscape:zoom="2.9280202"
   showgrid="false"
   id="namedview19"
   inkscape:window-height="745"
   inkscape:window-width="1366"
   inkscape:pageshadow="2"
   inkscape:pageopacity="0"
   guidetolerance="10"
   gridtolerance="10"
   objecttolerance="10"
   borderopacity="1"
   bordercolor="#666666"
   pagecolor="#ffffff" />
<style
   id="style2"
   type="text/css">
	.st0{fill:#233342;}
	.st1{fill:#EF8D6F;}
	.st2{fill:#D28F36;}
	.st3{fill:#FFFFFF;}
	.st4{fill:#666666;}
</style>
<g
   transform="matrix(0.09493791,0,0,0.08478524,-10.245887,-8.5654374)"
   id="g16">
	<g
   id="g14">
		<g
   id="g8">
			<g
   id="g6">
				<path
   id="path4"
   d="m 250.32,146.39 c 0,-4.14 1.09,-8.17 3.27,-12.09 2.18,-3.92 5.06,-7.46 8.66,-10.62 3.59,-3.16 7.68,-5.66 12.26,-7.52 4.57,-1.85 9.25,-2.78 14.05,-2.78 4.57,0 8.82,0.87 12.74,2.61 3.92,1.75 7.4,3.92 10.45,6.53 3.05,2.61 5.66,5.45 7.84,8.5 2.17,3.05 3.7,5.88 4.57,8.5 0.16,0.38 0.44,1.1 0.65,1.31 4.79,-9.8 11.38,-17.37 19.77,-22.71 8.38,-5.33 18.13,-8 29.24,-8 8.93,0 17.42,1.85 25.49,5.55 8.05,3.71 15.08,9.26 21.07,16.67 5.99,7.4 10.73,16.5 14.21,27.28 3.48,10.78 5.23,23.36 5.23,37.73 0,14.16 -1.75,26.58 -5.23,37.25 -3.49,10.67 -8.33,19.6 -14.54,26.79 -6.21,7.19 -13.62,12.64 -22.22,16.34 -8.61,3.7 -18.03,5.56 -28.26,5.56 -6.53,0 -12.2,-0.65 -16.99,-1.96 -4.79,-1.3 -8.82,-2.83 -12.09,-4.57 -1.75,-0.87 -3.43,-1.85 -5.06,-2.94 -1.63,-1.09 -3.32,-2.29 -5.06,-3.6 v 40.84 c 0,5.01 0.11,9.26 0.33,12.74 0.21,3.48 0.92,6.31 2.12,8.5 1.2,2.17 3.16,3.81 5.88,4.9 2.72,1.09 6.48,1.63 11.27,1.63 v 4.9 h -91.48 v -4.9 c 5.01,0 8.82,-0.54 11.43,-1.63 2.61,-1.09 4.52,-2.72 5.72,-4.9 1.19,-2.18 1.9,-5.01 2.12,-8.5 0.21,-3.49 0.33,-7.73 0.33,-12.74 V 147.7 c 0,-4.14 -0.82,-7.3 -2.45,-9.48 -1.63,-2.18 -3.65,-3.27 -6.04,-3.27 -2.4,0 -5.34,1.04 -8.82,3.1 -3.49,2.08 -6.97,4.86 -10.46,8.34 z m 80.06,113.05 c 3.48,3.26 7.29,6.32 11.43,9.15 4.14,2.84 9.03,4.25 14.7,4.25 3.7,0 7.24,-0.98 10.62,-2.94 3.38,-1.96 6.32,-5.66 8.82,-11.11 2.5,-5.44 4.52,-13.01 6.04,-22.71 1.52,-9.69 2.28,-22.38 2.28,-38.06 0,-15.9 -0.77,-28.8 -2.28,-38.72 -1.53,-9.91 -3.49,-17.64 -5.88,-23.2 -2.4,-5.55 -5.12,-9.31 -8.17,-11.27 -3.05,-1.96 -6.21,-2.94 -9.48,-2.94 -3.49,0 -6.65,0.82 -9.48,2.45 -2.83,1.63 -5.39,3.71 -7.68,6.21 -2.28,2.51 -4.36,5.28 -6.21,8.33 -1.85,3.05 -3.43,6.1 -4.74,9.15 v 111.41 z"
   class="st0" />
			</g>
		</g>
		<g
   id="g12">
			<path
   id="path10"
   d="m 303.59,404.76 c -14.37,-16.8 76.47,-60.02 46.58,-9.89 -34.95,58.63 -103.38,85.84 -163.87,68.08 -33.7,-9.89 -55.95,-32.47 -66.89,-68.91 -3.25,-10.81 -3.89,-34.81 0.8,-51.52 9.5,-33.82 32.03,-54.82 65.07,-56.36 16.68,-0.78 32.14,-4.69 46.02,-15.18 23.91,-18.05 30.23,-51.84 14.28,-75.24 -10.92,-16.03 -32.5,-21.59 -47.73,-9.82 -8.92,8.54 -11.63,17.56 -8.43,30.04 4.11,16.03 25.48,15.99 21.63,5.63 -5.95,-16 13.34,-15.05 15.9,-11.54 2.67,3.66 -3.52,20.07 -11.35,24.85 -11.45,6.02 -28.82,0.31 -33.71,-13.04 -6.73,-21.54 0.85,-34.02 8.09,-41.26 16.34,-16.36 45.65,-13.62 61.1,6.05 17.81,22.66 16.69,57.25 -2.59,81.04 -9.25,11.42 -21.48,18.16 -35.41,24.46 13.7,11.01 21.01,24.14 20.42,41.32 -0.77,22.14 -20.61,40.27 -37.51,34.56 -34.7,-11.48 -14.83,-26.23 -13.16,-26.37 19.41,-1.54 11.53,16.06 14.51,16.49 14.07,2 22.43,-5.05 25.81,-19.17 3.55,-14.79 -3.43,-30.61 -15.94,-37.48 -25.91,-14.25 -61.58,0.67 -73.94,30.93 -17.23,42.18 -2.2,89.91 35.39,112.37 68.29,40.79 150.83,-21.45 134.93,-40.04 z"
   class="st2" />
		</g>
	</g>
</g>
</svg>
