<?xml version="1.0" encoding="UTF-8" standalone="no"?>
<svg
   xmlns:dc="http://purl.org/dc/elements/1.1/"
   xmlns:cc="http://creativecommons.org/ns#"
   xmlns:rdf="http://www.w3.org/1999/02/22-rdf-syntax-ns#"
   xmlns:svg="http://www.w3.org/2000/svg"
   xmlns="http://www.w3.org/2000/svg"
   xmlns:sodipodi="http://sodipodi.sourceforge.net/DTD/sodipodi-0.dtd"
   xmlns:inkscape="http://www.inkscape.org/namespaces/inkscape"
   sodipodi:docname="dibujo.png.svg"
   inkscape:version="1.0 (4035a4fb49, 2020-05-01)"
   width="1040"
   height="297"
   viewBox="0 0 275.16667 78.58125"
   version="1.1"
   id="svg8">
  <defs
     id="defs2">
    <clipPath
       clipPathUnits="userSpaceOnUse"
       id="clipPath1936">
      <path
         id="path1938"
         style="fill:#ff0000;fill-opacity:1;fill-rule:nonzero;stroke:none;stroke-width:0.264583"
         d="m 301.04003,110.61443 -298.0050731,5.3e-4 v 0.33125 c 0.035643,-0.009 0.076307,-0.0135 0.1198893,-0.0155 -0.019595,-0.063 -0.00936,-0.10525 0.07028,-0.0982 0.021135,0.002 0.047164,0.008 0.078548,0.0171 0.029149,0.009 0.05945,0.0135 0.087333,0.0258 0.032306,0.0141 0.059382,0.0321 0.085783,0.0512 H 3.68763 c 0.3051138,0 0.4270325,0.17875 0.3767212,0.32867 0.00622,0.0328 0.00778,0.0677 0.00362,0.10387 0.1177165,0.0842 0.2124411,0.15865 0.019121,0.0398 0.014608,0.0422 0.030662,0.0839 0.043408,0.1266 0.00925,0.031 0.016814,0.18524 0.012401,0.19224 -0.04323,0.0713 -0.073894,0.12188 -0.099219,0.15813 0.2308704,0.2205 0.4108053,0.42091 0.2490804,0.35192 -0.00352,0.007 -0.011708,0.0117 -0.027905,0.0129 -0.1300017,0.01 -0.3159257,-0.40478 -0.2702679,-0.28267 0.073229,0.19586 0.1335752,0.33771 0.1870689,0.45372 0.1934263,0.0872 0.253688,0.23234 0.1994709,0.34365 0.1215951,0.12546 0.1170237,-0.0985 0.1167887,0.18758 -2.148e-4,0.20249 6.879e-4,0.4047 5.292e-4,0.6072 -9.79e-4,0.18242 -0.00676,0.36493 0.0031,0.54725 0.00541,0.23736 0.00681,0.47405 -0.00827,0.71107 0.069505,0.15664 0.1109178,0.32353 0.1297077,0.49403 0.02127,-0.006 0.048865,-0.0146 0.069246,-0.0207 v 5.3e-4 c 0.2509332,-0.0751 0.48031,-0.11168 0.6857463,-0.11627 1.4380469,-0.0322 1.7037701,1.48832 -0.01602,2.1239 -0.2522477,0.0932 -0.5007814,0.16852 -0.747758,0.22789 7.408e-4,0.008 0.00177,0.0165 0.00259,0.0248 0.181937,-0.0574 0.3532462,0.0152 0.4945433,0.16898 0.9204684,-0.83355 2.1037806,-0.04 1.42782,1.54719 -0.1604251,0.3767 -0.2079811,0.79948 -0.368453,1.17512 -0.083609,0.19572 -0.2015704,0.40668 -0.3260783,0.60617 0.4303683,-0.0322 -0.8640934,0.88535 -0.5756757,0.82734 l -0.1431435,0.22169 c -0.2196441,0.1575 -0.4306255,0.32705 -0.6407878,0.49713 0.00146,-5.3e-4 0.0032,-8e-4 0.00465,-0.002 -0.028162,0.0257 -0.057113,0.0476 -0.085783,0.0698 0.00524,0.002 0.037465,-0.006 0.028422,-0.003 -0.011935,0.004 -0.035079,0.0147 -0.051159,0.0212 -0.033184,0.0246 -0.066846,0.0473 -0.1007692,0.0677 -0.042654,0.22056 -0.083907,0.44083 -0.1260904,0.66146 0.036178,-0.0382 0.072721,-0.0761 0.1012857,-0.11989 0.1203677,-0.18476 0.074022,-0.37331 0.1116211,0.0744 0.012171,0.28741 -0.00463,0.57388 -0.0031,0.86144 0.00251,0.2457 0.00238,0.49225 0.00156,0.73794 v 0.062 c -4.763e-4,0.70752 -0.2436196,1.16868 -0.5632731,1.3963 -0.015766,0.0761 -0.05793,0.15973 -0.142627,0.24443 -0.038585,0.0386 -0.072222,0.0829 -0.1157552,0.11576 -0.056473,0.0427 -0.1658388,0.1126 -0.269751,0.17932 v 0.10283 0.0811 c 0.069021,0.0591 0.1157714,0.17062 0.1105877,0.32815 0.051021,0.0644 0.055382,0.10195 0.054777,0.19017 0,0.10947 0.00528,0.16722 -0.00465,0.19998 0.00167,0.006 0.00397,0.0132 0.00465,0.0212 0.00259,0.0305 -2.646e-4,0.0757 0,0.14934 v 0.15555 c 0.9291685,-0.48287 1.7273339,0.71714 1.2169799,1.63194 0.087489,0.14373 0.098576,0.43837 0.1953371,0.96273 -0.010073,0.0311 -0.01674,0.0638 -0.030489,0.0935 -0.00705,0.0152 -0.030221,0.0225 -0.031006,0.0393 -0.00602,0.12846 0.014968,0.25693 0.011369,0.38551 -0.00877,0.3132 -0.036009,0.65848 -0.1653646,0.94826 -0.032708,0.22447 -0.078654,0.44719 -0.1064535,0.67231 -0.092314,0.74757 0.025635,0.17338 -0.1188559,1.03818 -0.012004,0.0719 -0.04437,0.13967 -0.05426,0.21187 -0.0093,0.0679 -0.00169,0.13666 -0.00259,0.20516 -6.35e-4,0.0105 -5.292e-4,0.002 -0.00103,0.0103 0.1118814,0.57616 0.040294,1.0079 -0.6981486,1.14412 -0.00995,0.0845 -0.01611,0.1613 -0.022738,0.23823 0.1155287,0.056 0.2314546,0.12525 0.3462319,0.15968 0.025583,0.0314 0.051982,0.0615 0.078031,0.0925 0.00507,-0.05 0.2353781,0.10236 0.2682007,0.21135 0.00528,0.004 0.011499,0.0102 0.016536,0.0134 0.017727,0.0113 0.029713,0.0305 0.044442,0.0455 0.1619083,0.0948 0.464012,0.26601 0.550354,0.36742 0.5589145,0.65647 0.4655216,1.2634 0.3147094,2.04173 -0.017111,0.0588 -0.2494097,0.86645 -0.2852539,0.95395 -0.020757,0.0506 -0.066131,0.0877 -0.099219,0.13126 -0.00965,0.0127 -0.012999,0.0384 -0.028939,0.0377 -0.017396,-7.9e-4 -0.037546,-0.0575 -0.032556,-0.0408 0.053446,0.17876 0.1191199,0.35343 0.1788006,0.5302 -0.00827,0.17575 7.144e-4,0.35354 -0.024805,0.52762 -0.018545,0.12651 -0.065794,0.24723 -0.1064535,0.36845 -0.2230948,0.66516 -0.5642663,1.29726 -0.5870443,2.01486 -0.00684,0.0352 -0.012557,0.0617 -0.019637,0.093 0.392081,0.25949 0.5014163,1.01398 0.4366659,1.40043 0.1333394,0.13664 -0.078851,0.56649 -0.077515,0.81545 0.0023,0.42913 0.00466,0.85816 0.00723,1.28727 0.0092,1.34317 0.023593,2.68648 0.024289,4.02972 1.54e-4,0.29922 0.021746,0.61674 -0.1426271,0.88884 0.014192,0.0798 -0.03326,0.25154 -0.029972,0.34261 0.020765,0.57486 0.041241,1.15506 0.042891,1.73065 -0.022685,0.12423 -0.022106,0.25501 -0.068213,0.37258 -0.054682,0.13944 -0.1711664,0.24807 -0.2294435,0.38603 -0.034443,0.0815 -0.02462,0.17569 -0.044442,0.262 -0.061015,0.26557 -0.1284065,0.52972 -0.1979205,0.79323 -0.4112498,1.55895 -0.1377635,0.40584 -0.4046265,1.56683 -0.022998,0.23264 -0.1283687,0.44903 -0.1607137,0.67954 -0.01307,0.0932 -0.00628,0.18807 -0.0062,0.28216 3.175e-4,0.38769 0.00775,0.77448 0.042375,1.16065 0.047091,0.22892 -0.033966,0.42676 -0.056844,0.65422 -0.00704,0.07 0.032401,-0.13662 0.052193,-0.20412 0.00119,-0.004 0.004,0.008 0.00414,0.0124 0.00124,0.0413 -1.532e-4,0.0822 0,0.12351 0.032662,0.72755 -0.065755,1.46567 0.063045,2.18694 0.027006,0.15124 0.074135,0.29841 0.1111043,0.44752 0.066701,0.31009 0.1387012,0.57519 0.152962,0.89194 0.013319,0.29582 -0.026408,0.46327 -0.049092,0.75034 -0.02763,0.34966 -0.022278,0.47069 -0.027389,0.84077 0.0014,0.20624 0.00172,0.41234 0.00414,0.61857 0.00169,0.14555 0.00555,0.29114 0.00827,0.43667 0.00122,0.0645 0.023111,0.19121 0.029456,0.27078 0.014968,0.0325 0.025892,0.0666 0.039274,0.0997 0.1250988,-0.0606 0.1558066,-0.0754 0.00414,0.0103 -0.00127,-0.003 -0.00282,-0.007 -0.00414,-0.01 -0.143711,0.0697 -0.4226163,0.20216 -0.7338054,0.33021 v 0.1018 c 0.2260285,-0.12843 0.6468237,-0.37038 0.7379396,-0.42168 0.018635,0.0467 0.040069,0.0922 0.054777,0.14056 0.072106,0.2368 0.020132,0.49508 0.02377,0.74259 0.00458,0.31152 0.00175,0.62276 5.291e-4,0.93431 -0.00289,0.72092 -0.014568,1.44228 -0.019637,2.16318 -0.00214,0.12528 6.614e-4,0.24301 0.00259,0.36328 0.023413,-0.003 0.04694,-0.0101 0.07028,-0.0114 0.8886987,-0.0501 1.7092438,0.97482 1.2939779,2.68459 -0.051657,0.21268 -0.1234395,0.42163 -0.1550294,0.63821 -0.097513,0.6685 0.00523,1.33519 -0.1043864,2.00091 -0.028149,0.17095 -0.084896,0.34923 -0.1074869,0.42013 -0.1012693,0.21326 -0.2142908,0.42191 -0.2986897,0.64234 -0.019479,0.0509 0.060951,-0.0934 0.104903,-0.12558 0.010697,-0.008 0.021061,0.0215 0.019121,0.0346 -0.027479,0.18592 -0.077498,0.3683 -0.1064536,0.55398 -0.053619,0.34382 -0.053186,0.48537 -0.069763,0.81442 -0.207831,0.68669 -0.1849588,1.13091 -0.1405599,1.80764 0.021653,0.66239 -0.0037,1.32529 -0.00259,1.98799 0.00556,0.61033 0.00265,1.22057 0.00259,1.8309 -3.969e-4,1.46723 3.57e-5,2.93457 0,4.4018 -4.63e-5,0.6209 -1.19e-5,1.24148 0,1.86242 3.5e-6,0.35246 8e-7,0.70534 0,1.05781 0.063357,0.0548 0.1037347,0.0902 0.2139405,0.18397 0.6390278,1.43898 0.40971,0.50849 0.40566,1.78335 -8.1e-5,0.0253 0.031764,0.0404 0.040824,0.0641 0.016576,0.0433 0.00786,0.0973 0.03514,0.13488 0.011695,0.0161 0.014941,-0.0373 0.02222,-0.0558 0.041076,0.0622 0.081914,0.12435 0.1229898,0.18655 0.312198,0.43084 0.4638071,0.89727 0.5250325,1.37924 H 5.883923 c 0.2182701,0 0.4378603,-0.0195 0.6552573,0 0.5290587,0.0475 1.0530467,0.14052 1.5807817,0.20102 1.8603719,0.21321 1.5542138,0.17044 3.355351,0.26924 2.37621,-1.2e-4 4.750409,-0.0982 7.126697,-0.11886 0.277104,-0.002 0.913433,-0.26503 0.831473,-5.3e-4 -0.189801,0.613 -0.683948,1.07202 -1.118794,1.56115 h 0.280603 c 0.426689,-0.7185 0.7647,-1.51107 1.415417,-2.01383 0.512584,-0.39604 1.282964,-0.18452 1.927014,-0.25374 1.244907,-0.13367 2.445806,-0.16499 3.690215,-0.0734 0.561083,0.12753 1.095915,0.10946 1.659329,-0.0103 0.214969,-0.0458 0.421595,-0.12712 0.637172,-0.17002 0.364067,-0.0724 0.733116,-0.11668 1.099675,-0.17518 0.728263,-0.0293 1.128628,-0.0563 1.460375,-0.0625 0.552911,-0.0104 0.914493,0.0362 2.283064,0.22118 0.310605,0.042 0.622985,0.0845 0.930177,0.14779 0.624655,-0.078 1.252214,-0.12722 1.885156,-0.13384 0.798227,-0.008 1.604396,0.0476 2.422591,0.1881 0.07549,0.013 0.146899,0.0285 0.217556,0.0444 0.02804,-0.006 0.0556,-0.0116 0.08372,-0.0171 0.585391,-0.0359 0.253804,-0.0465 0.877983,0.0501 0.0078,10e-4 0.252069,-0.0209 0.278019,-0.0217 0.391747,-0.0162 0.784251,-0.007 1.176155,-0.006 0.451432,-5.3e-4 0.902491,-8e-4 1.353923,-5.3e-4 0.325173,2.3e-4 0.650478,4e-5 0.975651,0 0.610497,-7e-5 1.092671,0.12856 1.451591,0.33021 0.19276,-0.0725 0.412851,-0.11824 0.659392,-0.12816 0.289097,-0.0116 0.613768,0.0256 0.971,0.12351 0.56434,0.15475 1.100355,0.0639 1.668116,0.0377 0.495988,-0.0129 0.991889,0.0174 1.487763,0.0124 1.033372,10e-4 2.087464,-0.0705 3.095934,0.21446 0.107664,0.0304 0.213067,0.0684 0.317812,0.108 0.229262,-0.58304 0.942801,-1.07228 2.140953,-1.07228 0.342998,0 0.686311,-0.0172 1.02888,0 0.924613,0.0464 1.846824,0.13428 2.770889,0.19068 3.851809,0.23491 7.147872,0.42699 11.048939,0.46509 4.583496,0.0448 11.294655,-0.10589 15.888951,-0.18758 0.542211,-0.0138 1.084501,-0.0275 1.626775,-0.0413 0.648978,-0.38149 1.273736,-0.80813 1.872237,-1.26143 0.265353,-0.14529 0.521496,-0.30859 0.795816,-0.43615 0.351848,-0.16361 0.72091,-0.28796 1.079521,-0.43615 0.460934,-0.19048 0.915996,-0.39505 1.379244,-0.5798 1.027869,-0.40997 2.285458,-0.89338 3.363103,-1.15962 0.282588,-0.0698 0.577789,-0.0723 0.866614,-0.10852 0.183771,-0.023 0.355605,-0.0333 0.516247,-0.0326 2.409616,0.0109 2.219293,2.54158 -0.516247,3.02617 -0.147709,0.0262 -0.299585,0.0359 -0.443384,0.0786 -1.246653,0.37052 -2.445501,0.88398 -3.644222,1.38441 3.119799,0.14863 6.733939,0.15322 9.823682,0.14624 5.33942,-0.0112 10.67883,-0.0684 16.01814,-0.10232 -0.007,0.0615 -0.0111,0.11711 -0.017,0.17674 h 5.53093 c 0.92842,-0.79186 1.74685,-1.36656 2.23552,-1.20406 0.22142,-0.36884 0.43198,-0.62538 0.58652,-0.61702 0.13207,0.007 0.22377,0.20017 0.24908,0.66249 0.0204,0.37229 0.12113,0.76614 0.21601,1.15859 h 15.25798 4.22094 c 0.17793,0 0.34421,0.0112 0.50074,0.0315 0.21937,-0.32451 0.57975,-0.61229 0.7643,-0.78238 -0.14685,0.212 0.0139,-0.0316 0.36276,-0.27233 0.13214,-0.0912 0.27625,-0.16448 0.41858,-0.23875 0.0461,-0.098 0.0958,-0.194 0.15658,-0.28422 0.12603,-0.18687 0.40675,-0.19543 0.61754,-0.27543 0.0713,-0.0271 -0.26521,0.15085 -0.19741,0.11575 0.93048,-0.48153 -0.31323,0.1069 1.01183,-0.49919 1.05413,-0.35039 2.10994,-0.68228 3.14606,-1.08521 0.51197,-0.19909 1.02129,-0.40435 1.52755,-0.61753 0.36617,-0.15419 0.70056,-0.40293 1.08934,-0.48473 0.0299,-0.006 0.0599,-0.0109 0.0899,-0.0165 0.0377,-0.0174 0.0807,-0.0245 0.12764,-0.0233 0.64242,-0.10646 1.3019,-0.10105 1.9513,-0.16123 0.004,0.0423 0.004,0.0858 0.007,0.12867 1.10654,-0.0619 1.68499,-0.19315 2.65565,-0.41134 0.1628,-0.0775 0.32463,-0.15759 0.48782,-0.2341 0.56209,-0.26349 1.13047,-0.82178 1.72083,-0.82682 0.0843,-7.9e-4 0.16897,0.01 0.25425,0.0341 3.31183,0.94529 2.44002,1.96541 1.13016,2.80655 0.0194,0.0469 0.0356,0.0964 0.047,0.14882 0.10227,0.46693 -0.6452,0.46543 -1.25161,0.55966 -0.20525,0.11806 -0.39435,0.2302 -0.54363,0.3328 -0.29151,0.0658 -0.51243,0.11902 -0.75396,0.17621 -0.70684,0.33451 -1.31256,0.63077 -1.85363,0.90744 0.0111,0.004 0.0219,0.008 0.0331,0.0119 3.97758,-0.17147 7.96241,0.0824 11.92537,0.41031 0.90291,0.0747 1.80557,0.15622 2.70732,0.24391 0.2975,6e-5 0.59496,-0.002 0.89246,-0.002 0.057,-0.0959 0.16813,-0.0811 0.30075,-0.0227 0.052,-0.007 0.0968,-0.005 0.11886,0.0269 0.52088,0.008 0.79338,0.0143 0.85628,0.23048 1.11547,0.13739 2.22734,0.30389 3.3414,0.45268 0.31432,0.054 0.62758,0.11361 0.94154,0.1695 0.0354,-0.0109 0.0807,-0.0262 0.11007,-0.0346 0.69368,-0.19945 1.4096,-0.30927 2.1146,-0.46406 0.49562,-0.0875 0.98974,-0.18697 1.48467,-0.27905 0.28575,-0.26027 0.55984,-0.5339 0.82475,-0.81494 0.21327,-0.22624 0.39794,-0.47907 0.61754,-0.69918 0.28703,-0.2877 0.46553,-0.46085 0.61598,-0.59066 -0.006,-0.0775 -0.004,-0.15616 0.0119,-0.23668 0.14712,-0.76142 1.25538,-0.91042 1.88308,-1.36581 3.05317,0.5858 6.06099,1.36624 9.11779,1.94407 4.63435,0.87604 9.30473,1.50158 14.00173,1.91358 1.50338,-0.19841 2.98639,-0.4117 4.4633,-0.63562 0.0382,-0.17651 0.086,-0.35045 0.15606,-0.51883 0.13396,-0.32194 0.67325,-0.1935 1.01958,-0.2341 1.25388,-0.14704 2.62591,-0.15257 3.91965,-0.0605 2.96599,-0.49182 5.96321,-1.01178 9.10229,-1.53685 2.47666,-0.40603 4.94297,-0.87824 7.42952,-1.21853 1.10543,-0.15128 2.17594,-0.32906 3.23288,-0.31316 0.82206,0.0123 1.63595,0.14222 2.45256,0.49299 0.71345,0.30646 1.316,0.82449 1.96784,1.24644 1.26911,0.82153 1.2983,0.88047 1.52756,1.00717 0.0439,0.0105 0.0837,0.0182 0.1297,0.03 0.19815,0.0506 0.50215,0.0532 0.69298,0.13539 0.0142,-0.0296 0.0285,-0.0304 0.047,0.0238 0.0738,0.0427 0.12483,0.10132 0.12816,0.19068 0.0323,0.86662 0.0493,1.49239 0.0413,1.96681 0.65648,-0.12471 1.3082,-0.27638 1.95182,-0.46612 l -5.3e-4,-5.3e-4 c 0.99544,-0.29347 1.72754,-0.1477 2.15801,0.20825 0.36889,-0.0799 0.73395,-0.14438 1.05884,-0.2129 1.60283,-0.33803 0.67886,-0.1782 2.23036,-0.40618 0.25183,-0.009 0.5038,-0.0393 0.75551,-0.0274 0.53265,0.0252 0.58119,0.0817 1.00614,0.21394 2.6e-4,-0.002 2.2e-4,-0.005 5.3e-4,-0.007 7.9e-4,-0.006 0.0217,0.0138 0.0155,0.0119 -0.008,-0.002 -0.009,-0.003 -0.016,-0.005 -0.0333,0.28416 -0.0566,0.5704 -0.077,0.8568 0.11879,-0.006 0.24251,-0.008 0.36742,-0.01 l 0.65061,0.001 v -5.3e-4 c 0.22384,-0.39209 0.88973,-0.15743 1.33015,-0.25683 1.4282,-0.32228 2.8655,-0.66607 4.25554,-1.1343 -0.21114,-0.70751 -0.19079,-1.02435 0.41032,-0.22479 0.0172,0.023 0.0325,0.0411 0.0496,0.0636 0.0352,-0.0127 0.0708,-0.0243 0.10594,-0.0372 -0.0377,0.0228 -0.0574,0.0341 -0.092,0.0548 0.26289,0.34498 0.49297,0.61459 0.70847,0.85525 0.283,-0.1271 0.60386,-0.26431 0.77618,-0.29456 1.62084,-0.28449 3.26332,-0.45163 4.90461,-0.57051 8.09207,-0.58614 16.19081,-1.08421 24.29103,-1.54409 1.39192,-0.079 1.83999,-0.10404 3.05821,-0.17363 -0.0156,-0.65017 -0.0332,-0.99493 0.0579,-1.7508 0.10496,-0.87071 0.47236,-1.69806 0.35918,-2.59002 0.0439,-1.30687 0.16838,-2.60772 0.46145,-3.884 0.19424,-1.86472 0.0812,-0.66853 0.22067,-2.41174 0.0265,-0.32962 0.068,-0.6582 0.0822,-0.98857 0,-0.0199 -0.0177,-1.25754 0.0336,-1.48105 0.006,-0.0262 0.0148,-0.0516 0.0217,-0.0775 -0.0238,-0.16401 -0.0365,-0.0346 -0.13126,-0.66921 -0.14788,-0.99065 -0.11573,-0.87284 -0.11472,-1.80093 0.0101,-0.22428 0.0135,-0.44887 0.0289,-0.67282 0.0311,-0.45014 0.0905,-0.30395 0.0935,-0.31575 0.0543,-0.20469 -0.34935,-0.46039 -0.185,-0.60771 -0.18071,-0.87709 0.20238,0.89867 -0.34313,-0.9524 -0.16087,-0.54593 -0.14698,-1.07872 -0.13798,-1.63556 0,-0.90825 -0.0154,-1.81674 0.003,-2.7249 0.0151,-0.62127 -0.0116,-1.23179 -0.047,-1.85259 0.0897,-0.24389 0.17041,-0.49138 0.26921,-0.73174 0.018,-0.0442 0.0741,-0.16626 0.0801,-0.11886 0.004,0.0336 -0.0122,0.0916 -0.03,0.14418 0.0862,-0.22878 0.11832,-0.44616 0.108,-0.7028 0.0288,-0.82538 -0.0973,-1.64083 -0.0646,-2.46497 0.11316,-0.79403 0.23166,-1.58947 0.36224,-2.38073 0.043,-0.26052 0.0863,-0.52107 0.12713,-0.78187 -0.13499,-0.33071 -0.0589,-0.74554 -0.0615,-1.11104 -0.003,-0.26524 0.0533,-0.54073 0.11369,-0.81545 -0.003,-0.002 -0.007,-0.002 -0.01,-0.004 -2.0083,-1.2835 -1.63312,-1.48721 -1.07641,-2.68356 0.0644,-0.0491 0.12615,-0.10202 0.18862,-0.15399 0.0555,-0.06 0.13552,-0.13983 0.17465,-0.18139 0.35322,-0.37475 0.77706,-0.66314 1.25005,-0.85163 -0.11226,-0.30619 0.15441,-0.67047 0.80616,-0.70125 0.10269,-0.005 0.20561,-0.002 0.30851,5.3e-4 z m -53.01693,83.16909 c -0.0148,-0.009 -0.0302,-0.0165 -0.047,-0.0238 -0.015,0.0313 -0.0353,0.11083 -0.0615,0.22376 0.0784,0.0393 0.0903,0.0447 0.18707,0.0935 -0.0364,-0.14634 -0.0601,-0.23978 -0.0786,-0.29352 z M 3.2623332,111.60042 v 5.3e-4 c 0.013967,0.009 0.019037,0.0138 0.032039,0.0217 -0.0014,-0.002 -0.00212,-0.005 -0.00362,-0.007 -0.006,-0.009 -0.029452,-0.017 -0.028422,-0.015 z m 0.5906616,8.21139 c -0.043646,0.0625 -0.090419,0.13536 -0.1374592,0.20929 0.00425,0.01 0.010044,0.0198 0.013952,0.0294 0.016407,0.0401 -0.00885,0.0377 -0.046509,0.0222 -0.02432,0.039 -0.046608,0.0705 -0.07183,0.11265 -0.06006,0.10047 0.1165868,0.0464 0.2904215,-0.006 0.015531,-0.0332 0.029269,-0.0668 0.046509,-0.0992 0.020802,-0.0391 0.050172,-0.073 0.080098,-0.10645 -0.086942,-0.0794 -0.1020781,-0.0946 -0.175183,-0.16175 z m 0.9828858,0.17983 c -0.1364051,0.0674 -0.2974475,0.11306 -0.4857586,0.12919 -0.040447,0.004 -0.080959,0.007 -0.1214395,0.0104 -0.00701,0.0604 -0.015748,0.12038 -0.027905,0.17983 0.03873,0.008 0.076618,0.0173 0.1126545,0.031 0.1971429,-0.0954 0.3825103,-0.20521 0.5224489,-0.35037 z m 0.3007567,2.08928 c 0.030798,-0.022 -0.043412,0.0619 -0.065112,0.093 l 0.05426,-0.0842 c 0.00361,-0.003 0.00724,-0.005 0.010853,-0.008 z m -0.9281086,21.58679 c 0.00108,0.009 5.291e-4,0.0176 0.00206,0.0274 0.00161,0.0103 0.00505,0.0203 0.00723,0.0305 0.00159,-0.0262 -0.00161,-0.0448 -0.0093,-0.0579 z M 3.5956463,165.9263 c -0.022384,0.006 -0.046867,0.019 -0.069763,0.0269 0.033841,0.0586 0.06532,0.11806 0.097668,0.17725 -0.00783,-0.0687 -0.01248,-0.13899 -0.027905,-0.20413 z M 299.34141,179.77145 c 0,0.005 -0.003,0.0103 -0.004,0.0155 -0.006,0.0243 0.0159,0.0983 0.014,0.0734 -0.004,-0.0475 -0.006,-0.0558 -0.01,-0.0889 z M 158.09629,191.1103 c 0.007,0.25791 -0.003,0.52148 -0.0114,0.78444 0.12218,-0.0642 0.24379,-0.12929 0.36639,-0.19275 -0.0283,-0.14764 -0.06,-0.28261 -0.0961,-0.38137 -0.0419,-0.11466 -0.13929,-0.17296 -0.2589,-0.21032 z M 4.3480551,191.66892 c -0.032332,0.0954 -0.075364,0.19955 -0.00723,0.21652 0.060148,0.015 0.033859,-0.1251 0.018087,-0.185 -0.00289,-0.011 -0.00759,-0.0207 -0.010853,-0.0315 z m 237.5198649,2.36523 c -2.68361,-0.0626 -9.35087,1.24445 -10.80037,1.48208 -0.26059,0.0435 -0.49942,0.0848 -0.75758,0.12816 0.79932,0.17326 1.60017,0.34025 2.40864,0.46198 2.8452,0.42844 4.98685,0.46739 7.85017,0.41496 1.03267,-0.0189 2.07212,-0.0428 3.11092,-0.0925 -0.0326,-0.16526 -0.0449,-0.32418 -0.0274,-0.46922 0.0305,-0.25225 0.10824,-0.49404 0.19792,-0.73329 -0.009,-0.006 -0.0118,-0.008 -0.0207,-0.0145 -0.46882,-0.33385 -1.25647,-1.1613 -1.96163,-1.1777 z m -93.30593,0.14831 c 0.0225,-0.0104 -0.1759,0.10801 -0.12868,0.0868 0.032,-0.0143 0.0784,-0.0448 0.12144,-0.0713 0.002,-0.005 0.005,-0.0103 0.007,-0.0155 z m -0.23668,0.62528 c -0.10927,0.10503 -0.2172,0.21132 -0.31574,0.3235 -2.7e-4,0.15348 -0.0775,0.59351 -0.001,0.46044 0.14011,-0.24375 0.22834,-0.51399 0.31678,-0.78394 z m 115.59294,0.0186 c -0.435,0.28506 -0.17285,0.32411 0.40103,1.29709 0.0167,-0.0202 0.0334,-0.0404 0.0501,-0.0605 -0.17298,-0.43995 -0.33729,-0.87431 -0.45114,-1.23662 z m -179.243315,0.21291 c -0.360431,0.0104 -0.451038,0.30279 -0.119372,1.03766 0.323606,-0.13579 -0.05388,0.0145 1.144116,-0.59737 0.04981,-0.0254 0.101029,-0.048 0.151411,-0.0723 -0.492845,-0.22786 -0.90873,-0.37572 -1.176155,-0.36794 z m 213.485165,0.97772 c -0.93673,0.0535 -1.51197,0.0861 -2.33784,0.13281 0.0585,0.0436 0.1142,0.0864 0.14365,0.1204 0.16015,-0.002 0.12393,-2.4e-4 0.33125,-0.003 0.60836,-0.007 1.23754,-0.0366 1.86294,-0.032 z m -3.37241,0.19224 c -0.0206,10e-4 -0.041,0.002 -0.0615,0.004 0.039,0.0197 0.0782,0.0392 0.11729,0.0589 v -5.3e-4 c -0.0196,-0.0221 -0.0364,-0.0404 -0.0558,-0.062 z m 0.0568,0.0625 c 0.003,0.002 0.004,0.005 0.006,0.007 0.003,-2e-5 0.006,1e-5 0.008,0 -0.005,-0.002 -0.0101,-0.005 -0.0146,-0.007 z m -1.4433,0.0181 c -0.005,2.7e-4 -0.01,8e-4 -0.0146,0.001 0.006,-2e-5 0.008,2e-5 0.0146,0 -5e-5,-2.6e-4 3e-5,-7.9e-4 0,-0.001 z m -143.01815,0.32401 c -0.0434,0.0147 -0.089,0.0297 -0.13436,0.0439 -0.0109,0.0105 -0.0217,0.021 -0.0326,0.0315 0.0659,-0.0206 0.12741,-0.0445 0.16692,-0.0754 z m -0.37931,0.28112 c -0.0298,0.0288 -0.0596,0.0575 -0.0894,0.0863 h 0.0217 c 0.0235,-0.0282 0.0473,-0.0563 0.0677,-0.0863 z" />
    </clipPath>
  </defs>
  <sodipodi:namedview
     units="px"
     inkscape:window-maximized="1"
     inkscape:window-y="-8"
     inkscape:window-x="-8"
     inkscape:window-height="745"
     inkscape:window-width="1366"
     showgrid="false"
     inkscape:document-rotation="0"
     inkscape:current-layer="g1564"
     inkscape:document-units="mm"
     inkscape:cy="257.02561"
     inkscape:cx="523.8836"
     inkscape:zoom="0.70710678"
     inkscape:pageshadow="2"
     inkscape:pageopacity="0.0"
     borderopacity="1.0"
     bordercolor="#666666"
     pagecolor="#ffffff"
     id="base" />
  <metadata
     id="metadata5">
    <rdf:RDF>
      <cc:Work
         rdf:about="">
        <dc:format>image/svg+xml</dc:format>
        <dc:type
           rdf:resource="http://purl.org/dc/dcmitype/StillImage" />
        <dc:title></dc:title>
      </cc:Work>
    </rdf:RDF>
  </metadata>
  <g
     id="layer1"
     inkscape:groupmode="layer"
     inkscape:label="Capa 1">
    <g
       transform="translate(-3.175,2.6458333)"
       style="fill:none;fill-opacity:1;stroke:#233342;stroke-opacity:1"
       id="g855">
      <g
         id="g867">
        <g
           id="g1564"
           style="stroke:#87e6e6;stroke-opacity:1"
           transform="translate(4.2333333,-1.5875)">
          <g
             id="g2008"
             transform="matrix(0.93906474,0,0,0.93138775,-1.6518389,-114.72011)">
            <rect
               y="167.85576"
               x="290.08405"
               height="31.524441"
               width="6.9222808"
               id="rect1991"
               style="fill:#e6e6e6;fill-opacity:1;stroke:none;stroke-width:0.209501;stroke-linejoin:round;stroke-opacity:1" />
            <rect
               y="196.49452"
               x="1.5991845"
               height="12.534941"
               width="294.42578"
               id="rect1987"
               style="fill:#e6e6e6;fill-opacity:1;stroke:none;stroke-width:0.505429;stroke-linejoin:round;stroke-opacity:1" />
            <rect
               y="128.58046"
               x="-1.0333604"
               height="8.6060791"
               width="15.715447"
               id="rect1940"
               style="fill:#e6e6e6;fill-opacity:1;stroke:none;stroke-width:0.105833;stroke-linejoin:round;stroke-opacity:1" />
            <rect
               style="fill:#e6e6e6;fill-opacity:1;stroke:none;stroke-width:0.0536431;stroke-linejoin:round;stroke-opacity:1"
               id="rect1940-8"
               width="4.5024257"
               height="7.7174077"
               x="-1.05074"
               y="125.35926" />
            <rect
               style="fill:#e6e6e6;fill-opacity:1;stroke:none;stroke-width:0.272516;stroke-linejoin:round;stroke-opacity:1"
               id="rect1940-6"
               width="15.715448"
               height="57.062046"
               x="-0.70263124"
               y="151.88034" />
            <g
               style="stroke:none"
               transform="translate(-0.6964301,-2.8483345)"
               id="g1578">
              <rect
                 y="140.05141"
                 x="-0.0062011601"
                 height="23.283333"
                 width="25.4"
                 id="rect1512"
                 style="fill:#e6e6e6;fill-opacity:1;stroke:none;stroke-width:0.105833;stroke-linejoin:round;stroke-opacity:1" />
              <g
                 style="stroke:none"
                 id="g1570">
                <rect
                   y="152.88354"
                   x="5.9547377"
                   height="22.45064"
                   width="37.791912"
                   id="rect1514"
                   style="fill:#e6e6e6;fill-opacity:1;stroke:none;stroke-width:0.105833;stroke-linejoin:round;stroke-opacity:1" />
                <rect
                   y="168.97318"
                   x="19.425121"
                   height="22.45064"
                   width="37.791912"
                   id="rect1514-1"
                   style="fill:#e6e6e6;fill-opacity:1;stroke:none;stroke-width:0.105833;stroke-linejoin:round;stroke-opacity:1" />
                <rect
                   y="180.19849"
                   x="23.166897"
                   height="22.45064"
                   width="37.791912"
                   id="rect1514-12"
                   style="fill:#e6e6e6;fill-opacity:1;stroke:none;stroke-width:0.105833;stroke-linejoin:round;stroke-opacity:1" />
                <rect
                   style="fill:#e6e6e6;fill-opacity:1;stroke:none;stroke-width:0.118365;stroke-linejoin:round;stroke-opacity:1"
                   id="rect1514-12-3"
                   width="38.399014"
                   height="27.638405"
                   x="24.009264"
                   y="181.55836" />
              </g>
            </g>
            <path
               transform="translate(-4.0341858,12.974795)"
               clip-path="url(#clipPath1936)"
               style="fill:#e6e6e6;fill-opacity:1;stroke:#233342;stroke-width:0.264583px;stroke-linecap:butt;stroke-linejoin:miter;stroke-opacity:1"
               d="M 45.398213,195.78097 98.317578,138.05075 3.7041667,110.78926 3.1696276,126.82543 74.797861,180.81388 126.11361,123.6182 l 136.30746,54.52298 -126.68576,-12.82894 114.39136,-28.33057 50.7812,17.63979 v 42.22859 L 3.1696276,196.31551 3.1687988,126.82223"
               id="path1510" />
            <rect
               y="124.34222"
               x="-1.0558507"
               height="1.7209327"
               width="1.6956066"
               id="rect1940-8-6"
               style="fill:#e6e6e6;fill-opacity:1;stroke:none;stroke-width:0.0155453;stroke-linejoin:round;stroke-opacity:1" />
            <rect
               y="167.01031"
               x="288.86777"
               height="11.641666"
               width="6.3499999"
               id="rect1989"
               style="fill:#e6e6e6;fill-opacity:1;stroke:none;stroke-width:0.105833;stroke-linejoin:round;stroke-opacity:1" />
          </g>
        </g>
      </g>
    </g>
  </g>
</svg>
